HIERARCHY
ROOT Hips
{
	OFFSET 0.000000 0.000000 0.000000
	CHANNELS 6 Xposition Yposition Zposition Xrotation Yrotation Zrotation
	JOINT LeftUpLeg_virtual
	{
		OFFSET 0.000000 0.000000 0.000000
		CHANNELS 3 Xrotation Yrotation Zrotation
		JOINT LeftUpLeg
		{
			OFFSET 15.427100 -6.655098 0.678600
			CHANNELS 3 Xrotation Yrotation Zrotation
			JOINT LeftLeg
			{
				OFFSET 4.081073 -39.591068 13.024000
				CHANNELS 3 Xrotation Yrotation Zrotation
				JOINT LeftFoot
				{
					OFFSET -4.081074 -37.707932 -15.979700
					CHANNELS 3 Xrotation Yrotation Zrotation
					JOINT LeftToeBase
					{
						OFFSET 5.346399 -15.068900 20.645000
						CHANNELS 3 Xrotation Yrotation Zrotation
						JOINT LeftToe_End
						{
							OFFSET 2.754700 0.931300 11.300900
							CHANNELS 3 Xrotation Yrotation Zrotation
							End Site
							{
								OFFSET 0 0 0
							}
						}
					}
				}
			}
		}
	}
	JOINT RightUpLeg_virtual
	{
		OFFSET 0.000000 0.000000 0.000000
		CHANNELS 3 Xrotation Yrotation Zrotation
		JOINT RightUpLeg
		{
			OFFSET -15.569500 -6.655098 0.678600
			CHANNELS 3 Xrotation Yrotation Zrotation
			JOINT RightLeg
			{
				OFFSET -4.081825 -39.591045 13.023800
				CHANNELS 3 Xrotation Yrotation Zrotation
				JOINT RightFoot
				{
					OFFSET 4.081824 -37.707954 -15.979600
					CHANNELS 3 Xrotation Yrotation Zrotation
					JOINT RightToeBase
					{
						OFFSET -5.346400 -15.068900 20.645000
						CHANNELS 3 Xrotation Yrotation Zrotation
						JOINT RightToe_End
						{
							OFFSET -2.754700 0.931300 11.300900
							CHANNELS 3 Xrotation Yrotation Zrotation
							End Site
							{
								OFFSET 0 0 0
							}
						}
					}
				}
			}
		}
	}
	JOINT Spine_virtual
	{
		OFFSET 0.000000 0.000000 0.000000
		CHANNELS 3 Xrotation Yrotation Zrotation
		JOINT Spine
		{
			OFFSET -0.279200 12.230698 -2.892100
			CHANNELS 3 Xrotation Yrotation Zrotation
			JOINT Spine1
			{
				OFFSET -0.232667 10.192268 -1.242267
				CHANNELS 3 Xrotation Yrotation Zrotation
				JOINT Spine1_split
				{
					OFFSET -0.232667 10.192268 -1.242267
					CHANNELS 3 Xrotation Yrotation Zrotation
					JOINT Spine2
					{
						OFFSET -0.232667 10.192268 -1.242267
						CHANNELS 3 Xrotation Yrotation Zrotation
						JOINT Neck_virtual
						{
							OFFSET 0.000000 0.000000 0.000000
							CHANNELS 3 Xrotation Yrotation Zrotation
							JOINT Neck
							{
								OFFSET -0.418800 17.814194 8.416900
								CHANNELS 3 Xrotation Yrotation Zrotation
								JOINT Head
								{
									OFFSET 0.000000 7.031097 3.806800
									CHANNELS 3 Xrotation Yrotation Zrotation
									JOINT HeadTop_End
									{
										OFFSET 0.000000 24.646606 12.978600
										CHANNELS 3 Xrotation Yrotation Zrotation
										End Site
										{
											OFFSET 0 0 0
										}
									}
								}
							}
						}
						JOINT LeftShoulder_virtual
						{
							OFFSET 0.000000 0.000000 0.000000
							CHANNELS 3 Xrotation Yrotation Zrotation
							JOINT LeftShoulder
							{
								OFFSET 8.476499 7.247704 -3.868750
								CHANNELS 3 Xrotation Yrotation Zrotation
								JOINT LeftShoulder_split
								{
									OFFSET 8.476499 7.247704 -3.868750
									CHANNELS 3 Xrotation Yrotation Zrotation
									JOINT LeftArm
									{
										OFFSET 9.308998 -2.777710 0.208600
										CHANNELS 3 Xrotation Yrotation Zrotation
										JOINT LeftForeArm
										{
											OFFSET 29.972298 0.000000 0.000000
											CHANNELS 3 Xrotation Yrotation Zrotation
											JOINT LeftHand
											{
												OFFSET 26.026505 0.000000 0.000000
												CHANNELS 3 Xrotation Yrotation Zrotation
												End Site
												{
													OFFSET 0 0 0
												}
											}
										}
									}
								}
							}
						}
						JOINT RightShoulder_virtual
						{
							OFFSET 0.000000 0.000000 0.000000
							CHANNELS 3 Xrotation Yrotation Zrotation
							JOINT RightShoulder
							{
								OFFSET -7.570500 7.247704 -3.868750
								CHANNELS 3 Xrotation Yrotation Zrotation
								JOINT RightShoulder_split
								{
									OFFSET -7.570500 7.247704 -3.868750
									CHANNELS 3 Xrotation Yrotation Zrotation
									JOINT RightArm
									{
										OFFSET -9.308998 -2.777710 0.208500
										CHANNELS 3 Xrotation Yrotation Zrotation
										JOINT RightForeArm
										{
											OFFSET -29.972300 0.000000 0.000000
											CHANNELS 3 Xrotation Yrotation Zrotation
											JOINT RightHand
											{
												OFFSET -26.026505 0.000000 0.000000
												CHANNELS 3 Xrotation Yrotation Zrotation
												End Site
												{
													OFFSET 0 0 0
												}
											}
										}
									}
								}
							}
						}
					}
				}
			}
		}
	}
}
MOTION
Frames: 6
Frame Time: 0.03333333
0.392421 93.053413 0.209171 0.000000 0.000000 0.000000 0.996508 -6.758890 -1.239856 -12.511126 19.604731 15.757566 15.121282 9.256742 3.169068 -3.164661 3.354977 -13.895916 2.995536 0.441557 -1.102410 0.000000 0.000000 0.000000 1.571746 -5.933574 -1.298455 -8.854608 -21.338440 -4.776619 14.371816 10.278560 -1.540391 -8.530356 1.286785 2.406872 1.859622 -0.067657 0.671695 0.000000 0.000000 0.000000 1.136253 -8.045597 -1.769996 -0.651133 -0.585107 2.144689 -0.783309 -1.118632 1.010491 1.326626 1.460344 -0.379852 0.000000 0.000000 0.000000 -1.113096 -0.553927 0.906646 -5.287475 0.525392 1.288296 -1.094677 8.067500 0.509874 0.000000 0.000000 0.000000 -1.359328 -0.222315 0.592233 -0.616114 9.878216 -2.739795 -3.566396 -0.027018 -0.560693 42.147810 -65.856629 -27.734939 -0.453349 -27.808825 2.013685 0.000000 0.000000 0.000000 -0.208597 -0.332031 0.426486 3.966671 2.917768 3.757414 0.727373 2.100950 -1.128587 -2.039192 38.421194 65.658807 1.265136 25.403256 1.474964 0.000000 0.000000 0.000000 
0.438461 93.061981 0.293690 0.000000 0.000000 0.000000 0.969252 -6.949277 -1.165282 -12.469194 19.658068 15.642211 15.078848 9.224684 3.200727 -3.369725 3.331139 -13.921128 3.073520 0.411245 -1.070197 0.000000 0.000000 0.000000 1.615297 -6.073945 -1.217756 -8.839752 -21.290108 -4.828315 14.405094 10.241267 -1.541162 -8.471913 1.232589 2.077095 1.831600 -0.091637 0.754514 0.000000 0.000000 0.000000 1.143055 -8.048744 -1.777666 -0.725264 -0.634874 2.152237 -0.750422 -1.126807 1.012152 1.338763 1.368265 -0.341049 0.000000 0.000000 0.000000 -1.120356 -0.551000 0.935038 -5.419181 0.651500 1.173794 -1.153988 8.277088 0.549622 0.000000 0.000000 0.000000 -1.275861 -0.226563 0.599845 -0.593226 9.872413 -2.830264 -3.822351 0.064070 -0.355241 42.382963 -65.879169 -27.597622 -0.333502 -28.016830 2.031066 0.000000 0.000000 0.000000 -0.181022 -0.308382 0.460932 3.945063 3.065433 3.326147 0.966024 2.567474 -1.328887 -2.611798 38.390277 66.085195 1.115157 25.320654 1.388188 0.000000 0.000000 0.000000 
0.541265 93.045929 0.359943 0.000000 0.000000 0.000000 0.977072 -7.257250 -0.971908 -12.318327 19.809813 15.379165 15.077159 9.217082 3.270044 -3.661370 3.346088 -13.831946 3.144853 0.381274 -1.072087 0.000000 0.000000 0.000000 1.618745 -6.244594 -1.033086 -8.964990 -21.194569 -5.140884 14.578124 10.225829 -1.549059 -8.489508 1.216403 1.805930 1.782782 -0.093214 0.800817 0.000000 0.000000 0.000000 1.116509 -8.203315 -1.673934 -0.786308 -0.708715 2.102181 -0.687208 -1.155769 1.019069 1.277286 1.099744 -0.384480 0.000000 0.000000 0.000000 -1.044541 -0.560817 0.954895 -5.632528 0.792537 0.901960 -1.151277 8.503530 0.468411 0.000000 0.000000 0.000000 -1.125024 -0.263868 0.607943 -0.576620 9.909018 -2.832179 -3.904388 0.118741 -0.254846 42.045292 -66.090174 -28.024978 -0.296935 -28.295985 1.936729 0.000000 0.000000 0.000000 -0.126073 -0.308435 0.513680 3.910052 3.207412 2.675226 0.806874 3.010828 -1.456268 -3.260753 39.233071 66.626924 0.938147 24.128360 1.207097 0.000000 0.000000 0.000000 
0.696549 92.999641 0.400684 0.000000 0.000000 0.000000 1.012372 -7.588953 -0.675617 -12.125836 20.059897 14.993022 15.107147 9.241319 3.363611 -3.999588 3.395205 -13.584721 3.224698 0.351906 -1.109862 0.000000 0.000000 0.000000 1.622991 -6.396088 -0.753141 -9.266341 -21.080807 -5.721134 14.846502 10.271624 -1.520592 -8.495970 1.282870 1.739853 1.707140 -0.069244 0.809672 0.000000 0.000000 0.000000 1.057121 -8.446429 -1.460896 -0.809013 -0.765739 2.007915 -0.592564 -1.182187 1.015799 1.134112 0.738132 -0.439657 0.000000 0.000000 0.000000 -0.921011 -0.567126 0.942462 -5.909079 0.898534 0.568813 -1.105153 8.708166 0.278593 0.000000 0.000000 0.000000 -0.927661 -0.311208 0.596477 -0.572935 9.932310 -2.732397 -3.882757 0.176608 -0.193549 41.142918 -66.483470 -28.881933 -0.321724 -28.607380 1.780131 0.000000 0.000000 0.000000 -0.026279 -0.317932 0.555993 3.878496 3.334937 2.032328 0.491621 3.212370 -1.402348 -3.942433 40.598843 67.104840 0.753680 22.541042 0.977272 0.000000 0.000000 0.000000 
0.888038 92.940247 0.406513 0.000000 0.000000 0.000000 1.064107 -7.878159 -0.315381 -11.950191 20.389728 14.538222 15.169818 9.257543 3.454678 -4.342073 3.448405 -13.189743 3.311451 0.321416 -1.172558 0.000000 0.000000 0.000000 1.649835 -6.544006 -0.404883 -9.617779 -20.951276 -6.437920 15.056273 10.375185 -1.444345 -8.514725 1.412772 1.853596 1.561163 -0.032752 0.786837 0.000000 0.000000 0.000000 0.975263 -8.712771 -1.179988 -0.794966 -0.745786 1.896396 -0.468296 -1.169026 0.974432 0.914625 0.504739 -0.528635 0.000000 0.000000 0.000000 -0.768001 -0.539728 0.872552 -6.243119 0.940970 0.282926 -1.073503 8.803595 0.040510 0.000000 0.000000 0.000000 -0.731573 -0.318189 0.550494 -0.588401 9.909031 -2.541875 -3.788692 0.222047 -0.257865 39.740308 -67.072478 -29.983062 -0.351941 -28.833493 1.633131 0.000000 0.000000 0.000000 0.130538 -0.302204 0.551693 3.865747 3.425033 1.650265 0.160653 3.201106 -1.301259 -4.796011 42.110162 67.404576 0.575544 21.216639 0.799082 0.000000 0.000000 0.000000 
1.097146 92.844818 0.380760 0.000000 0.000000 0.000000 1.111598 -8.148884 0.058287 -11.841960 20.746138 14.087099 15.254143 9.195981 3.510080 -4.663133 3.460599 -12.733700 3.348815 0.294348 -1.214892 0.000000 0.000000 0.000000 1.692196 -6.680547 -0.041423 -9.929608 -20.786648 -7.157989 15.136213 10.453812 -1.326492 -8.618109 1.538502 1.993886 1.399143 0.005931 0.748640 0.000000 0.000000 0.000000 0.929579 -8.899485 -0.888804 -0.749052 -0.578855 1.791409 -0.312547 -1.076773 0.880243 0.770039 0.461544 -0.502872 0.000000 0.000000 0.000000 -0.619098 -0.436506 0.749023 -6.621386 0.898368 0.126893 -1.109718 8.724682 -0.193345 0.000000 0.000000 0.000000 -0.578386 -0.252302 0.474282 -0.619589 9.799941 -2.292073 -3.777617 0.279700 -0.438818 38.189753 -67.817898 -30.977848 -0.352146 -28.812631 1.550458 0.000000 0.000000 0.000000 0.305897 -0.230632 0.479198 3.880011 3.505285 1.622887 -0.072618 3.128290 -1.040184 -6.069725 43.386956 67.448289 0.419933 20.220577 0.706509 0.000000 0.000000 0.000000 
